<svg width="2342" height="237" viewBox="0 0 2342 237" fill="none" xmlns="http://www.w3.org/2000/svg">
<g filter="url(#filter0_d_86_229)">
<path d="M4 228.476L4 37.4285C93.3493 73.6328 182.699 109.837 266.504 95.6979C350.309 81.5587 428.57 17.0761 504.702 12.5924C580.833 8.10883 654.835 63.6243 720.214 65.1304C785.594 66.6365 842.352 14.1333 917.902 7.81627C993.453 1.49923 1087.8 41.3683 1177.17 64.1751C1266.54 86.982 1350.93 92.7265 1434.81 102.385C1518.68 112.043 1602.04 125.614 1664.9 103.34C1727.77 81.0653 1770.14 22.9447 1848.01 5.90581C1925.88 -11.1331 2039.24 12.9098 2126.72 25.0105C2214.19 37.1113 2275.78 37.2699 2337.37 37.4286L2337.37 228.476L4 228.476Z" fill="white"/>
<path d="M4.5 227.976L4.5 38.1706C48.9397 56.1774 93.4105 74.167 137.201 85.9249C181.221 97.7443 224.587 103.277 266.587 96.1909C306.288 89.4929 344.736 71.521 382.232 53.9947C384.388 52.9868 386.542 51.9803 388.692 50.9775C428.265 32.5218 466.777 15.3268 504.731 13.0916C542.678 10.8567 580.119 23.5746 616.315 37.0837C619.573 38.2998 622.822 39.5224 626.06 40.741C658.746 53.0433 690.363 64.9428 720.203 65.6302C753.019 66.3862 783.652 53.5866 815.442 39.8661C816.408 39.4492 817.375 39.0316 818.343 38.6134C849.271 25.2527 881.408 11.3694 917.944 8.31453C955.627 5.16373 998.029 13.5308 1042.22 25.5567C1061.88 30.9059 1081.88 36.9754 1101.96 43.0717C1104.45 43.827 1106.94 44.5828 1109.43 45.3376C1132.02 52.1838 1154.69 58.9549 1177.04 64.6596C1249.15 83.0618 1318.03 90.3622 1385.97 97.563C1402.28 99.2908 1418.52 101.013 1434.75 102.881C1443.67 103.908 1452.59 104.98 1461.48 106.049C1494.36 110.001 1526.85 113.906 1557.71 115.336C1596.92 117.153 1633.55 114.98 1665.07 103.811C1692.31 94.1585 1715.72 77.7894 1739.75 60.9813C1743.52 58.3473 1747.3 55.7024 1751.11 53.071C1779.29 33.6339 1809.28 14.8918 1848.12 6.39425C1886.97 -2.10698 1934.71 -0.364447 1983.7 5.0278C2014.84 8.45396 2046.44 13.3481 2076.57 18.0148C2093.87 20.6937 2110.69 23.2976 2126.65 25.5058C2213.92 37.5787 2275.44 37.769 2336.87 37.9273L2336.87 227.976L4.5 227.976Z" stroke="black"/>
</g>
<defs>
<filter id="filter0_d_86_229" x="0" y="0" width="2341.37" height="236.476" filterUnits="userSpaceOnUse" color-interpolation-filters="sRGB">
<feFlood flood-opacity="0" result="BackgroundImageFix"/>
<feColorMatrix in="SourceAlpha" type="matrix" values="0 0 0 0 0 0 0 0 0 0 0 0 0 0 0 0 0 0 127 0" result="hardAlpha"/>
<feOffset dy="4"/>
<feGaussianBlur stdDeviation="2"/>
<feComposite in2="hardAlpha" operator="out"/>
<feColorMatrix type="matrix" values="0 0 0 0 0 0 0 0 0 0 0 0 0 0 0 0 0 0 0.25 0"/>
<feBlend mode="normal" in2="BackgroundImageFix" result="effect1_dropShadow_86_229"/>
<feBlend mode="normal" in="SourceGraphic" in2="effect1_dropShadow_86_229" result="shape"/>
</filter>
</defs>
</svg>
